<svg width="2568" height="412" viewBox="0 0 2568 412" fill="none" xmlns="http://www.w3.org/2000/svg">
<rect width="2568" height="412" fill="white"/>
<path d="M2425.67 314.468C2411.86 314.468 2399.74 311.181 2389.32 304.608C2378.96 298.035 2370.86 288.839 2365.02 277.021C2359.24 265.203 2356.35 251.392 2356.35 235.59C2356.35 219.655 2359.24 205.746 2365.02 193.861C2370.86 181.976 2378.96 172.747 2389.32 166.174C2399.74 159.601 2411.86 156.314 2425.67 156.314C2439.48 156.314 2451.56 159.601 2461.92 166.174C2472.34 172.747 2480.44 181.976 2486.22 193.861C2492.06 205.746 2494.99 219.655 2494.99 235.59C2494.99 251.392 2492.06 265.203 2486.22 277.021C2480.44 288.839 2472.34 298.035 2461.92 304.608C2451.56 311.181 2439.48 314.468 2425.67 314.468ZM2425.67 293.354C2436.16 293.354 2444.79 290.665 2451.56 285.287C2458.34 279.909 2463.35 272.838 2466.6 264.074C2469.85 255.31 2471.48 245.815 2471.48 235.59C2471.48 225.365 2469.85 215.838 2466.6 207.007C2463.35 198.177 2458.34 191.039 2451.56 185.595C2444.79 180.15 2436.16 177.428 2425.67 177.428C2415.18 177.428 2406.55 180.15 2399.77 185.595C2393 191.039 2387.99 198.177 2384.74 207.007C2381.48 215.838 2379.86 225.365 2379.86 235.59C2379.86 245.815 2381.48 255.31 2384.74 264.074C2387.99 272.838 2393 279.909 2399.77 285.287C2406.55 290.665 2415.18 293.354 2425.67 293.354Z" fill="#B8BDC6"/>
<path d="M2287.03 309.091V160.497H2309.86V309.091H2287.03ZM2298.64 135.732C2294.19 135.732 2290.35 134.216 2287.13 131.185C2283.97 128.154 2282.39 124.51 2282.39 120.253C2282.39 115.996 2283.97 112.353 2287.13 109.321C2290.35 106.29 2294.19 104.775 2298.64 104.775C2303.09 104.775 2306.89 106.29 2310.05 109.321C2313.28 112.353 2314.89 115.996 2314.89 120.253C2314.89 124.51 2313.28 128.154 2310.05 131.185C2306.89 134.216 2303.09 135.732 2298.64 135.732Z" fill="#B8BDC6"/>
<path d="M2166.84 318.058C2154.11 318.058 2142.87 314.843 2133.12 308.412C2123.38 301.915 2115.75 292.766 2110.25 280.966C2104.75 269.099 2102 255.078 2102 238.902C2102 222.858 2104.75 208.936 2110.25 197.136C2115.75 185.335 2123.41 176.219 2133.22 169.789C2143.04 163.358 2154.37 160.143 2167.23 160.143C2177.18 160.143 2185.03 161.8 2190.8 165.115C2196.63 168.363 2201.08 172.076 2204.13 176.252C2207.24 180.363 2209.66 183.744 2211.39 186.396H2213.37V111.217H2236.84V314.876H2214.17V291.407H2211.39C2209.66 294.192 2207.21 297.705 2204.03 301.948C2200.84 306.125 2196.3 309.871 2190.4 313.185C2184.5 316.434 2176.65 318.058 2166.84 318.058ZM2170.02 296.976C2179.43 296.976 2187.39 294.523 2193.88 289.617C2200.38 284.645 2205.32 277.784 2208.7 269.033C2212.08 260.215 2213.77 250.039 2213.77 238.504C2213.77 227.101 2212.12 217.124 2208.8 208.571C2205.49 199.953 2200.58 193.257 2194.08 188.484C2187.59 183.644 2179.56 181.225 2170.02 181.225C2160.07 181.225 2151.79 183.777 2145.16 188.882C2138.59 193.92 2133.65 200.782 2130.34 209.466C2127.09 218.085 2125.47 227.764 2125.47 238.504C2125.47 249.376 2127.12 259.254 2130.44 268.138C2133.82 276.955 2138.79 283.982 2145.36 289.22C2151.99 294.391 2160.21 296.976 2170.02 296.976Z" fill="#B8BDC6"/>
<path d="M2036.23 252.147V162.756H2059.47V313.971H2036.23V288.375H2034.66C2031.12 296.054 2025.6 302.584 2018.12 307.966C2010.64 313.282 2001.19 315.94 1989.77 315.94C1980.32 315.94 1971.92 313.873 1964.57 309.738C1957.21 305.538 1951.44 299.237 1947.24 290.836C1943.04 282.37 1940.94 271.705 1940.94 258.841V162.756H1964.17V257.266C1964.17 268.292 1967.26 277.087 1973.43 283.65C1979.66 290.213 1987.6 293.494 1997.25 293.494C2003.03 293.494 2008.9 292.018 2014.87 289.064C2020.91 286.111 2025.96 281.582 2030.03 275.479C2034.17 269.375 2036.23 261.598 2036.23 252.147Z" fill="#B8BDC6"/>
<path d="M1898.96 161.287V181.496H1818.53V161.287H1898.96ZM1841.97 124.102H1865.82V272.034C1865.82 278.771 1866.8 283.823 1868.75 287.191C1870.77 290.492 1873.33 292.715 1876.43 293.86C1879.6 294.938 1882.93 295.477 1886.44 295.477C1889.06 295.477 1891.22 295.343 1892.9 295.073C1894.59 294.736 1895.93 294.467 1896.94 294.265L1901.79 315.687C1900.18 316.293 1897.92 316.899 1895.02 317.505C1892.13 318.179 1888.46 318.516 1884.01 318.516C1877.27 318.516 1870.67 317.068 1864.2 314.171C1857.81 311.274 1852.48 306.862 1848.24 300.934C1844.06 295.006 1841.97 287.528 1841.97 278.501V124.102Z" fill="#B8BDC6"/>
<path d="M1757.74 169.432C1756.55 159.399 1751.73 151.611 1743.28 146.067C1734.84 140.523 1724.47 137.751 1712.2 137.751C1703.22 137.751 1695.37 139.203 1688.63 142.107C1681.97 145.011 1676.75 149.004 1672.99 154.086C1669.3 159.168 1667.45 164.944 1667.45 171.412C1667.45 176.824 1668.74 181.477 1671.31 185.371C1673.95 189.199 1677.32 192.4 1681.41 194.974C1685.5 197.482 1689.79 199.561 1694.28 201.211C1698.77 202.795 1702.89 204.082 1706.65 205.072L1727.25 210.616C1732.53 212.002 1738.4 213.916 1744.87 216.358C1751.4 218.8 1757.64 222.133 1763.58 226.357C1769.58 230.515 1774.53 235.861 1778.43 242.395C1782.32 248.929 1784.27 256.949 1784.27 266.453C1784.27 277.409 1781.4 287.309 1775.66 296.153C1769.98 304.997 1761.66 312.026 1750.71 317.24C1739.82 322.454 1726.59 325.061 1711.01 325.061C1696.49 325.061 1683.92 322.718 1673.29 318.032C1662.73 313.346 1654.41 306.812 1648.34 298.43C1642.34 290.048 1638.94 280.313 1638.14 269.225H1663.49C1664.15 276.881 1666.72 283.217 1671.21 288.233C1675.76 293.183 1681.51 296.879 1688.44 299.321C1695.43 301.697 1702.96 302.885 1711.01 302.885C1720.38 302.885 1728.8 301.367 1736.25 298.331C1743.71 295.229 1749.62 290.939 1753.98 285.461C1758.33 279.917 1760.51 273.449 1760.51 266.057C1760.51 259.325 1758.63 253.847 1754.87 249.622C1751.1 245.398 1746.15 241.966 1740.02 239.326C1733.88 236.686 1727.25 234.376 1720.12 232.396L1695.17 225.268C1679.33 220.714 1666.79 214.213 1657.55 205.765C1648.31 197.317 1643.69 186.262 1643.69 172.6C1643.69 161.247 1646.76 151.347 1652.9 142.899C1659.1 134.385 1667.42 127.785 1677.84 123.099C1688.34 118.347 1700.05 115.971 1712.99 115.971C1726.06 115.971 1737.67 118.314 1747.84 123C1758 127.62 1766.05 133.956 1771.99 142.008C1778 150.06 1781.17 159.201 1781.5 169.432H1757.74Z" fill="#B8BDC6"/>
<path d="M1389.83 325.479C1372.18 325.479 1356.96 322.002 1344.14 315.047C1331.41 308.019 1321.6 298.026 1314.71 285.068C1307.91 272.037 1304.5 256.553 1304.5 238.617C1304.5 221.193 1307.94 205.965 1314.82 192.934C1321.71 179.83 1331.41 169.653 1343.92 162.406C1356.44 155.085 1371.2 151.424 1388.18 151.424C1400.19 151.424 1411.17 153.291 1421.12 157.025C1431.08 160.759 1439.68 166.286 1446.93 173.607C1454.18 180.928 1459.81 189.969 1463.84 200.731C1467.87 211.419 1469.88 223.682 1469.88 237.518V250.916H1323.28V219.729H1419.92C1419.84 214.018 1418.49 208.93 1415.85 204.464C1413.22 199.999 1409.59 196.521 1404.98 194.032C1400.44 191.47 1395.21 190.189 1389.28 190.189C1383.27 190.189 1377.89 191.543 1373.14 194.252C1368.38 196.887 1364.61 200.511 1361.82 205.123C1359.04 209.662 1357.58 214.824 1357.43 220.607V252.343C1357.43 259.225 1358.79 265.265 1361.49 270.463C1364.2 275.587 1368.05 279.577 1373.03 282.432C1378 285.287 1383.93 286.715 1390.82 286.715C1395.57 286.715 1399.89 286.056 1403.77 284.738C1407.65 283.421 1410.98 281.481 1413.77 278.918C1416.55 276.356 1418.63 273.208 1420.03 269.474L1469.33 270.902C1467.28 281.956 1462.78 291.583 1455.82 299.783C1448.94 307.909 1439.9 314.242 1428.7 318.781C1417.5 323.246 1404.54 325.479 1389.83 325.479Z" fill="#0A0A0B"/>
<path d="M1158.49 226.098V322.295H1104.79V153.621H1155.85V184.588H1157.72C1161.45 174.266 1167.82 166.176 1176.82 160.319C1185.83 154.389 1196.55 151.424 1209 151.424C1220.86 151.424 1231.15 154.096 1239.86 159.441C1248.64 164.712 1255.45 172.106 1260.28 181.623C1265.19 191.067 1267.6 202.122 1267.53 214.787V322.295H1213.83V225.329C1213.9 215.958 1211.53 208.637 1206.69 203.366C1201.94 198.095 1195.31 195.46 1186.82 195.46C1181.18 195.46 1176.2 196.704 1171.88 199.193C1167.64 201.609 1164.34 205.087 1162 209.626C1159.73 214.165 1158.56 219.655 1158.49 226.098Z" fill="#0A0A0B"/>
<path d="M997.659 324.614V155.94H1051.36V324.614H997.659ZM1024.56 136.283C1017.02 136.283 1010.54 133.794 1005.13 128.816C999.708 123.764 997 117.688 997 110.587C997 103.559 999.708 97.5554 1005.13 92.5772C1010.54 87.5257 1017.02 85 1024.56 85C1032.18 85 1038.66 87.5257 1044 92.5772C1049.42 97.5554 1052.13 103.559 1052.13 110.587C1052.13 117.688 1049.42 123.764 1044 128.816C1038.66 133.794 1032.18 136.283 1024.56 136.283Z" fill="#0A0A0B"/>
<path d="M945.699 100V212.449V324.899H892V100H945.699Z" fill="#0A0A0B"/>
<path d="M770.325 326.055C752.682 326.055 737.454 322.578 724.643 315.623C711.904 308.595 702.094 298.602 695.213 285.644C688.404 272.612 685 257.129 685 239.192C685 221.768 688.441 206.541 695.322 193.51C702.204 180.405 711.904 170.229 724.423 162.981C736.942 155.66 751.693 152 768.678 152C780.684 152 791.666 153.867 801.622 157.601C811.579 161.334 820.181 166.862 827.428 174.182C834.676 181.503 840.313 190.545 844.34 201.306C848.366 211.995 850.38 224.258 850.38 238.094V251.491H703.778V220.304H800.414C800.341 214.594 798.987 209.506 796.351 205.04C793.716 200.574 790.092 197.097 785.48 194.608C780.941 192.045 775.706 190.764 769.776 190.764C763.773 190.764 758.392 192.119 753.634 194.827C748.875 197.463 745.105 201.087 742.323 205.699C739.541 210.238 738.077 215.399 737.93 221.183V252.919C737.93 259.801 739.285 265.84 741.993 271.038C744.702 276.163 748.545 280.153 753.524 283.008C758.502 285.863 764.432 287.291 771.314 287.291C776.072 287.291 780.392 286.632 784.272 285.314C788.152 283.996 791.483 282.056 794.265 279.494C797.047 276.932 799.133 273.784 800.524 270.05L849.831 271.478C847.781 282.532 843.278 292.159 836.323 300.359C829.442 308.485 820.4 314.817 809.199 319.356C797.998 323.822 785.04 326.055 770.325 326.055Z" fill="#0A0A0B"/>
<path d="M639.728 204.699L590.421 206.017C589.909 202.503 588.518 199.391 586.248 196.683C583.979 193.901 581.014 191.741 577.353 190.204C573.766 188.593 569.593 187.788 564.835 187.788C558.612 187.788 553.304 189.032 548.912 191.521C544.592 194.01 542.469 197.378 542.542 201.624C542.469 204.919 543.787 207.774 546.496 210.19C549.278 212.606 554.219 214.546 561.32 216.01L593.825 222.159C610.664 225.381 623.182 230.725 631.382 238.192C639.654 245.66 643.827 255.543 643.901 267.842C643.827 279.409 640.387 289.475 633.578 298.041C626.843 306.606 617.618 313.268 605.905 318.027C594.191 322.712 580.794 325.055 565.713 325.055C541.627 325.055 522.629 320.113 508.72 310.23C494.883 300.274 486.976 286.95 485 270.258L538.04 268.94C539.211 275.09 542.249 279.775 547.154 282.996C552.06 286.218 558.319 287.828 565.933 287.828C572.814 287.828 578.415 286.547 582.734 283.985C587.054 281.422 589.25 278.018 589.323 273.772C589.25 269.965 587.566 266.927 584.272 264.657C580.977 262.315 575.816 260.484 568.788 259.167L539.358 253.566C522.446 250.491 509.854 244.818 501.582 236.545C493.309 228.199 489.209 217.584 489.283 204.699C489.209 193.425 492.211 183.798 498.287 175.818C504.364 167.765 513.002 161.615 524.203 157.369C535.404 153.123 548.619 151 563.846 151C586.687 151 604.697 155.795 617.875 165.386C631.052 174.903 638.337 188.007 639.728 204.699Z" fill="#0A0A0B"/>
<path d="M348.498 325.15C337.736 325.15 328.183 323.356 319.837 319.769C311.564 316.109 305.012 310.618 300.18 303.297C295.421 295.903 293.042 286.642 293.042 275.514C293.042 266.143 294.689 258.237 297.984 251.794C301.278 245.352 305.817 240.117 311.601 236.091C317.384 232.064 324.046 229.026 331.587 226.976C339.127 224.853 347.18 223.426 355.746 222.694C365.336 221.815 373.06 220.9 378.917 219.948C384.773 218.923 389.02 217.496 391.655 215.665C394.364 213.762 395.718 211.09 395.718 207.649V207.1C395.718 201.463 393.778 197.107 389.898 194.032C386.018 190.957 380.784 189.42 374.195 189.42C367.093 189.42 361.383 190.957 357.064 194.032C352.744 197.107 349.999 201.353 348.828 206.771L299.302 205.014C300.766 194.764 304.536 185.613 310.612 177.56C316.762 169.434 325.181 163.065 335.87 158.452C346.631 153.767 359.553 151.424 374.634 151.424C385.396 151.424 395.316 152.706 404.394 155.268C413.471 157.757 421.378 161.417 428.113 166.249C434.849 171.008 440.046 176.865 443.707 183.819C447.441 190.774 449.307 198.718 449.307 207.649V322.295H398.793V298.795H397.475C394.474 304.505 390.63 309.337 385.945 313.29C381.333 317.243 375.878 320.208 369.582 322.185C363.36 324.162 356.332 325.15 348.498 325.15ZM365.08 290.009C370.864 290.009 376.062 288.838 380.674 286.495C385.359 284.153 389.093 280.932 391.875 276.832C394.657 272.659 396.048 267.827 396.048 262.336V246.304C394.51 247.109 392.643 247.841 390.447 248.5C388.324 249.159 385.981 249.781 383.419 250.367C380.857 250.952 378.221 251.465 375.512 251.904C372.804 252.343 370.205 252.746 367.716 253.112C362.664 253.917 358.345 255.162 354.758 256.846C351.244 258.529 348.535 260.726 346.631 263.435C344.801 266.07 343.886 269.218 343.886 272.879C343.886 278.442 345.863 282.689 349.816 285.617C353.842 288.545 358.931 290.009 365.08 290.009Z" fill="#0A0A0B"/>
<path d="M74 324.783V99.8846H167.781C184.619 99.8846 198.712 102.264 210.059 107.023C221.48 111.781 230.046 118.443 235.756 127.009C241.539 135.574 244.431 145.494 244.431 156.768C244.431 165.334 242.638 172.984 239.05 179.719C235.463 186.381 230.521 191.909 224.225 196.301C217.929 200.694 210.645 203.769 202.372 205.526V207.722C211.45 208.161 219.833 210.614 227.52 215.079C235.28 219.545 241.503 225.768 246.188 233.748C250.874 241.654 253.216 251.025 253.216 261.86C253.216 273.94 250.142 284.738 243.992 294.255C237.842 303.699 228.947 311.167 217.307 316.657C205.667 322.075 191.537 324.783 174.919 324.783H74ZM128.358 280.968H161.961C173.748 280.968 182.423 278.735 187.987 274.269C193.624 269.803 196.443 263.581 196.443 255.601C196.443 249.817 195.088 244.839 192.379 240.666C189.671 236.42 185.827 233.162 180.849 230.893C175.871 228.55 169.904 227.379 162.949 227.379H128.358V280.968ZM128.358 192.348H158.447C164.377 192.348 169.648 191.36 174.26 189.383C178.872 187.406 182.46 184.551 185.022 180.817C187.657 177.084 188.975 172.581 188.975 167.31C188.975 159.77 186.303 153.84 180.959 149.521C175.614 145.201 168.403 143.041 159.325 143.041H128.358V192.348Z" fill="#0A0A0B"/>
</svg>
