<svg width="2568" height="412" viewBox="0 0 2568 412" fill="none" xmlns="http://www.w3.org/2000/svg">
<path d="M2425.67 313.468C2411.86 313.468 2399.74 310.181 2389.32 303.608C2378.96 297.035 2370.86 287.839 2365.02 276.021C2359.24 264.203 2356.35 250.392 2356.35 234.59C2356.35 218.655 2359.24 204.746 2365.02 192.861C2370.86 180.976 2378.96 171.747 2389.32 165.174C2399.74 158.601 2411.86 155.314 2425.67 155.314C2439.48 155.314 2451.56 158.601 2461.92 165.174C2472.34 171.747 2480.44 180.976 2486.22 192.861C2492.06 204.746 2494.99 218.655 2494.99 234.59C2494.99 250.392 2492.06 264.203 2486.22 276.021C2480.44 287.839 2472.34 297.035 2461.92 303.608C2451.56 310.181 2439.48 313.468 2425.67 313.468ZM2425.67 292.354C2436.16 292.354 2444.79 289.665 2451.56 284.287C2458.34 278.909 2463.35 271.838 2466.6 263.074C2469.85 254.31 2471.48 244.815 2471.48 234.59C2471.48 224.365 2469.85 214.838 2466.6 206.007C2463.35 197.177 2458.34 190.039 2451.56 184.595C2444.79 179.15 2436.16 176.428 2425.67 176.428C2415.18 176.428 2406.55 179.15 2399.77 184.595C2393 190.039 2387.99 197.177 2384.74 206.007C2381.48 214.838 2379.86 224.365 2379.86 234.59C2379.86 244.815 2381.48 254.31 2384.74 263.074C2387.99 271.838 2393 278.909 2399.77 284.287C2406.55 289.665 2415.18 292.354 2425.67 292.354Z" fill="#B8BDC6"/>
<path d="M2287.03 308.091V159.497H2309.86V308.091H2287.03ZM2298.64 134.732C2294.19 134.732 2290.35 133.216 2287.13 130.185C2283.97 127.154 2282.39 123.51 2282.39 119.253C2282.39 114.996 2283.97 111.353 2287.13 108.321C2290.35 105.29 2294.19 103.775 2298.64 103.775C2303.09 103.775 2306.89 105.29 2310.05 108.321C2313.28 111.353 2314.89 114.996 2314.89 119.253C2314.89 123.51 2313.28 127.154 2310.05 130.185C2306.89 133.216 2303.09 134.732 2298.64 134.732Z" fill="#B8BDC6"/>
<path d="M2166.84 317.058C2154.11 317.058 2142.87 313.843 2133.12 307.412C2123.38 300.915 2115.75 291.766 2110.25 279.966C2104.75 268.099 2102 254.078 2102 237.902C2102 221.858 2104.75 207.936 2110.25 196.136C2115.75 184.335 2123.41 175.219 2133.22 168.789C2143.04 162.358 2154.37 159.143 2167.23 159.143C2177.18 159.143 2185.03 160.8 2190.8 164.115C2196.63 167.363 2201.08 171.076 2204.13 175.252C2207.24 179.363 2209.66 182.744 2211.39 185.396H2213.37V110.217H2236.84V313.876H2214.17V290.407H2211.39C2209.66 293.192 2207.21 296.705 2204.03 300.948C2200.84 305.125 2196.3 308.871 2190.4 312.185C2184.5 315.434 2176.65 317.058 2166.84 317.058ZM2170.02 295.976C2179.43 295.976 2187.39 293.523 2193.88 288.617C2200.38 283.645 2205.32 276.784 2208.7 268.033C2212.08 259.215 2213.77 249.039 2213.77 237.504C2213.77 226.101 2212.12 216.124 2208.8 207.571C2205.49 198.953 2200.58 192.257 2194.08 187.484C2187.59 182.644 2179.56 180.225 2170.02 180.225C2160.07 180.225 2151.79 182.777 2145.16 187.882C2138.59 192.92 2133.65 199.782 2130.34 208.466C2127.09 217.085 2125.47 226.764 2125.47 237.504C2125.47 248.376 2127.12 258.254 2130.44 267.138C2133.82 275.955 2138.79 282.982 2145.36 288.22C2151.99 293.391 2160.21 295.976 2170.02 295.976Z" fill="#B8BDC6"/>
<path d="M2036.23 251.147V161.756H2059.47V312.971H2036.23V287.375H2034.66C2031.12 295.054 2025.6 301.584 2018.12 306.966C2010.64 312.282 2001.19 314.94 1989.77 314.94C1980.32 314.94 1971.92 312.873 1964.57 308.738C1957.21 304.538 1951.44 298.237 1947.24 289.836C1943.04 281.37 1940.94 270.705 1940.94 257.841V161.756H1964.17V256.266C1964.17 267.292 1967.26 276.087 1973.43 282.65C1979.66 289.213 1987.6 292.494 1997.25 292.494C2003.03 292.494 2008.9 291.018 2014.87 288.064C2020.91 285.111 2025.96 280.582 2030.03 274.479C2034.17 268.375 2036.23 260.598 2036.23 251.147Z" fill="#B8BDC6"/>
<path d="M1898.96 160.287V180.496H1818.53V160.287H1898.96ZM1841.97 123.102H1865.82V271.034C1865.82 277.771 1866.8 282.823 1868.75 286.191C1870.77 289.492 1873.33 291.715 1876.43 292.86C1879.6 293.938 1882.93 294.477 1886.44 294.477C1889.06 294.477 1891.22 294.343 1892.9 294.073C1894.59 293.736 1895.93 293.467 1896.94 293.265L1901.79 314.687C1900.18 315.293 1897.92 315.899 1895.02 316.505C1892.13 317.179 1888.46 317.516 1884.01 317.516C1877.27 317.516 1870.67 316.068 1864.2 313.171C1857.81 310.274 1852.48 305.862 1848.24 299.934C1844.06 294.006 1841.97 286.528 1841.97 277.501V123.102Z" fill="#B8BDC6"/>
<path d="M1757.74 168.432C1756.55 158.399 1751.73 150.611 1743.28 145.067C1734.84 139.523 1724.47 136.751 1712.2 136.751C1703.22 136.751 1695.37 138.203 1688.63 141.107C1681.97 144.011 1676.75 148.004 1672.99 153.086C1669.3 158.168 1667.45 163.944 1667.45 170.412C1667.45 175.824 1668.74 180.477 1671.31 184.371C1673.95 188.199 1677.32 191.4 1681.41 193.974C1685.5 196.482 1689.79 198.561 1694.28 200.211C1698.77 201.795 1702.89 203.082 1706.65 204.072L1727.25 209.616C1732.53 211.002 1738.4 212.916 1744.87 215.358C1751.4 217.8 1757.64 221.133 1763.58 225.357C1769.58 229.515 1774.53 234.861 1778.43 241.395C1782.32 247.929 1784.27 255.949 1784.27 265.453C1784.27 276.409 1781.4 286.309 1775.66 295.153C1769.98 303.997 1761.66 311.026 1750.71 316.24C1739.82 321.454 1726.59 324.061 1711.01 324.061C1696.49 324.061 1683.92 321.718 1673.29 317.032C1662.73 312.346 1654.41 305.812 1648.34 297.43C1642.34 289.048 1638.94 279.313 1638.14 268.225H1663.49C1664.15 275.881 1666.72 282.217 1671.21 287.233C1675.76 292.183 1681.51 295.879 1688.44 298.321C1695.43 300.697 1702.96 301.885 1711.01 301.885C1720.38 301.885 1728.8 300.367 1736.25 297.331C1743.71 294.229 1749.62 289.939 1753.98 284.461C1758.33 278.917 1760.51 272.449 1760.51 265.057C1760.51 258.325 1758.63 252.847 1754.87 248.622C1751.1 244.398 1746.15 240.966 1740.02 238.326C1733.88 235.686 1727.25 233.376 1720.12 231.396L1695.17 224.268C1679.33 219.714 1666.79 213.213 1657.55 204.765C1648.31 196.317 1643.69 185.262 1643.69 171.6C1643.69 160.247 1646.76 150.347 1652.9 141.899C1659.1 133.385 1667.42 126.785 1677.84 122.099C1688.34 117.347 1700.05 114.971 1712.99 114.971C1726.06 114.971 1737.67 117.314 1747.84 122C1758 126.62 1766.05 132.956 1771.99 141.008C1778 149.06 1781.17 158.201 1781.5 168.432H1757.74Z" fill="#B8BDC6"/>
<path d="M1389.83 324.479C1372.18 324.479 1356.96 321.002 1344.14 314.047C1331.41 307.019 1321.6 297.026 1314.71 284.068C1307.91 271.037 1304.5 255.553 1304.5 237.617C1304.5 220.193 1307.94 204.965 1314.82 191.934C1321.71 178.83 1331.41 168.653 1343.92 161.406C1356.44 154.085 1371.2 150.424 1388.18 150.424C1400.19 150.424 1411.17 152.291 1421.12 156.025C1431.08 159.759 1439.68 165.286 1446.93 172.607C1454.18 179.928 1459.81 188.969 1463.84 199.731C1467.87 210.419 1469.88 222.682 1469.88 236.518V249.916H1323.28V218.729H1419.92C1419.84 213.018 1418.49 207.93 1415.85 203.464C1413.22 198.999 1409.59 195.521 1404.98 193.032C1400.44 190.47 1395.21 189.189 1389.28 189.189C1383.27 189.189 1377.89 190.543 1373.14 193.252C1368.38 195.887 1364.61 199.511 1361.82 204.123C1359.04 208.662 1357.58 213.824 1357.43 219.607V251.343C1357.43 258.225 1358.79 264.265 1361.49 269.463C1364.2 274.587 1368.05 278.577 1373.03 281.432C1378 284.287 1383.93 285.715 1390.82 285.715C1395.57 285.715 1399.89 285.056 1403.77 283.738C1407.65 282.421 1410.98 280.481 1413.77 277.918C1416.55 275.356 1418.63 272.208 1420.03 268.474L1469.33 269.902C1467.28 280.956 1462.78 290.583 1455.82 298.783C1448.94 306.909 1439.9 313.242 1428.7 317.781C1417.5 322.246 1404.54 324.479 1389.83 324.479Z" fill="white"/>
<path d="M1158.49 225.098V321.295H1104.79V152.621H1155.85V183.588H1157.72C1161.45 173.266 1167.82 165.176 1176.82 159.319C1185.83 153.389 1196.55 150.424 1209 150.424C1220.86 150.424 1231.15 153.096 1239.86 158.441C1248.64 163.712 1255.45 171.106 1260.28 180.623C1265.19 190.067 1267.6 201.122 1267.53 213.787V321.295H1213.83V224.329C1213.9 214.958 1211.53 207.637 1206.69 202.366C1201.94 197.095 1195.31 194.46 1186.82 194.46C1181.18 194.46 1176.2 195.704 1171.88 198.193C1167.64 200.609 1164.34 204.087 1162 208.626C1159.73 213.165 1158.56 218.655 1158.49 225.098Z" fill="white"/>
<path d="M997.659 323.614V154.94H1051.36V323.614H997.659ZM1024.56 135.283C1017.02 135.283 1010.54 132.794 1005.13 127.816C999.708 122.764 997 116.688 997 109.587C997 102.559 999.708 96.5554 1005.13 91.5772C1010.54 86.5257 1017.02 84 1024.56 84C1032.18 84 1038.66 86.5257 1044 91.5772C1049.42 96.5554 1052.13 102.559 1052.13 109.587C1052.13 116.688 1049.42 122.764 1044 127.816C1038.66 132.794 1032.18 135.283 1024.56 135.283Z" fill="white"/>
<path d="M945.699 99V211.449V323.899H892V99H945.699Z" fill="white"/>
<path d="M770.325 325.055C752.682 325.055 737.454 321.578 724.643 314.623C711.904 307.595 702.094 297.602 695.213 284.644C688.404 271.612 685 256.129 685 238.192C685 220.768 688.441 205.541 695.322 192.51C702.204 179.405 711.904 169.229 724.423 161.981C736.942 154.66 751.693 151 768.678 151C780.684 151 791.666 152.867 801.622 156.601C811.579 160.334 820.181 165.862 827.428 173.182C834.676 180.503 840.313 189.545 844.34 200.306C848.366 210.995 850.38 223.258 850.38 237.094V250.491H703.778V219.304H800.414C800.341 213.594 798.987 208.506 796.351 204.04C793.716 199.574 790.092 196.097 785.48 193.608C780.941 191.045 775.706 189.764 769.776 189.764C763.773 189.764 758.392 191.119 753.634 193.827C748.875 196.463 745.105 200.087 742.323 204.699C739.541 209.238 738.077 214.399 737.93 220.183V251.919C737.93 258.801 739.285 264.84 741.993 270.038C744.702 275.163 748.545 279.153 753.524 282.008C758.502 284.863 764.432 286.291 771.314 286.291C776.072 286.291 780.392 285.632 784.272 284.314C788.152 282.996 791.483 281.056 794.265 278.494C797.047 275.932 799.133 272.784 800.524 269.05L849.831 270.478C847.781 281.532 843.278 291.159 836.323 299.359C829.442 307.485 820.4 313.817 809.199 318.356C797.998 322.822 785.04 325.055 770.325 325.055Z" fill="white"/>
<path d="M639.728 203.699L590.421 205.017C589.909 201.503 588.518 198.391 586.248 195.683C583.979 192.901 581.014 190.741 577.353 189.204C573.766 187.593 569.593 186.788 564.835 186.788C558.612 186.788 553.304 188.032 548.912 190.521C544.592 193.01 542.469 196.378 542.542 200.624C542.469 203.919 543.787 206.774 546.496 209.19C549.278 211.606 554.219 213.546 561.32 215.01L593.825 221.159C610.664 224.381 623.182 229.725 631.382 237.192C639.654 244.66 643.827 254.543 643.901 266.842C643.827 278.409 640.387 288.475 633.578 297.041C626.843 305.606 617.618 312.268 605.905 317.027C594.191 321.712 580.794 324.055 565.713 324.055C541.627 324.055 522.629 319.113 508.72 309.23C494.883 299.274 486.976 285.95 485 269.258L538.04 267.94C539.211 274.09 542.249 278.775 547.154 281.996C552.06 285.218 558.319 286.828 565.933 286.828C572.814 286.828 578.415 285.547 582.734 282.985C587.054 280.422 589.25 277.018 589.323 272.772C589.25 268.965 587.566 265.927 584.272 263.657C580.977 261.315 575.816 259.484 568.788 258.167L539.358 252.566C522.446 249.491 509.854 243.818 501.582 235.545C493.309 227.199 489.209 216.584 489.283 203.699C489.209 192.425 492.211 182.798 498.287 174.818C504.364 166.765 513.002 160.615 524.203 156.369C535.404 152.123 548.619 150 563.846 150C586.687 150 604.697 154.795 617.875 164.386C631.052 173.903 638.337 187.007 639.728 203.699Z" fill="white"/>
<path d="M348.498 324.15C337.736 324.15 328.183 322.356 319.837 318.769C311.564 315.109 305.012 309.618 300.18 302.297C295.421 294.903 293.042 285.642 293.042 274.514C293.042 265.143 294.689 257.237 297.984 250.794C301.278 244.352 305.817 239.117 311.601 235.091C317.384 231.064 324.046 228.026 331.587 225.976C339.127 223.853 347.18 222.426 355.746 221.694C365.336 220.815 373.06 219.9 378.917 218.948C384.773 217.923 389.02 216.496 391.655 214.665C394.364 212.762 395.718 210.09 395.718 206.649V206.1C395.718 200.463 393.778 196.107 389.898 193.032C386.018 189.957 380.784 188.42 374.195 188.42C367.093 188.42 361.383 189.957 357.064 193.032C352.744 196.107 349.999 200.353 348.828 205.771L299.302 204.014C300.766 193.764 304.536 184.613 310.612 176.56C316.762 168.434 325.181 162.065 335.87 157.452C346.631 152.767 359.553 150.424 374.634 150.424C385.396 150.424 395.316 151.706 404.394 154.268C413.471 156.757 421.378 160.417 428.113 165.249C434.849 170.008 440.046 175.865 443.707 182.819C447.441 189.774 449.307 197.718 449.307 206.649V321.295H398.793V297.795H397.475C394.474 303.505 390.63 308.337 385.945 312.29C381.333 316.243 375.878 319.208 369.582 321.185C363.36 323.162 356.332 324.15 348.498 324.15ZM365.08 289.009C370.864 289.009 376.062 287.838 380.674 285.495C385.359 283.153 389.093 279.932 391.875 275.832C394.657 271.659 396.048 266.827 396.048 261.336V245.304C394.51 246.109 392.643 246.841 390.447 247.5C388.324 248.159 385.981 248.781 383.419 249.367C380.857 249.952 378.221 250.465 375.512 250.904C372.804 251.343 370.205 251.746 367.716 252.112C362.664 252.917 358.345 254.162 354.758 255.846C351.244 257.529 348.535 259.726 346.631 262.435C344.801 265.07 343.886 268.218 343.886 271.879C343.886 277.442 345.863 281.689 349.816 284.617C353.842 287.545 358.931 289.009 365.08 289.009Z" fill="white"/>
<path d="M74 323.783V98.8846H167.781C184.619 98.8846 198.712 101.264 210.059 106.023C221.48 110.781 230.046 117.443 235.756 126.009C241.539 134.574 244.431 144.494 244.431 155.768C244.431 164.334 242.638 171.984 239.05 178.719C235.463 185.381 230.521 190.909 224.225 195.301C217.929 199.694 210.645 202.769 202.372 204.526V206.722C211.45 207.161 219.833 209.614 227.52 214.079C235.28 218.545 241.503 224.768 246.188 232.748C250.874 240.654 253.216 250.025 253.216 260.86C253.216 272.94 250.142 283.738 243.992 293.255C237.842 302.699 228.947 310.167 217.307 315.657C205.667 321.075 191.537 323.783 174.919 323.783H74ZM128.358 279.968H161.961C173.748 279.968 182.423 277.735 187.987 273.269C193.624 268.803 196.443 262.581 196.443 254.601C196.443 248.817 195.088 243.839 192.379 239.666C189.671 235.42 185.827 232.162 180.849 229.893C175.871 227.55 169.904 226.379 162.949 226.379H128.358V279.968ZM128.358 191.348H158.447C164.377 191.348 169.648 190.36 174.26 188.383C178.872 186.406 182.46 183.551 185.022 179.817C187.657 176.084 188.975 171.581 188.975 166.31C188.975 158.77 186.303 152.84 180.959 148.521C175.614 144.201 168.403 142.041 159.325 142.041H128.358V191.348Z" fill="white"/>
</svg>
