<svg width="1536" height="1024" viewBox="0 0 1536 1024" fill="none" xmlns="http://www.w3.org/2000/svg">
<path d="M638.773 133.085C640.094 132.86 646.075 132.673 647.746 132.583C646.371 169.121 645.905 206.414 644.949 243.038L638.205 497.57C637.022 539.061 636.94 582.314 634.514 623.59C612.189 623.067 588.343 623.402 565.9 623.347C560.743 616.191 555.458 606.505 550.834 598.713L525.645 556.331L447.085 424.148C447.926 430.838 447.776 442.516 447.799 449.571L447.874 489.765L447.795 622.804C432.578 623.699 402.442 622.621 386.92 622.138L374.069 621.891C374.759 601.72 376.246 581.189 377.269 560.992L385.992 397.776C387.319 372.554 389.66 344.144 390.023 319.149C408.4 317.991 434.395 318.26 452.942 318.111C461.172 329.483 474.228 352.537 482.152 365.386L542.813 463.312C552.166 478.395 563.286 497.882 573.14 512.128C572.534 471.358 573.03 429.679 572.981 388.834L572.2 262.928C572.075 224.546 572.703 179.497 570.932 141.364C586.741 137.623 621.575 134.839 638.773 133.085Z" fill="#FEFEFE"/>
<path d="M760.342 393.037C825.397 383.443 885.9 428.438 895.455 493.513C905.01 558.589 859.995 619.082 794.925 628.602C729.914 638.116 669.493 593.131 659.947 528.107C650.4 463.083 695.34 402.622 760.342 393.037ZM788.827 567.593C820.642 561.586 841.575 530.941 835.612 499.113C829.65 467.285 799.042 446.303 767.212 452.225C735.325 458.158 714.298 488.845 720.273 520.734C726.247 552.622 756.952 573.612 788.827 567.593Z" fill="#FEFEFE"/>
<path d="M1114.2 394.124C1119.11 393.446 1133.98 393.785 1139.22 394.325C1176.8 398.198 1201.46 413.568 1224.94 442.099C1212.22 455.276 1197.69 472.651 1185.42 486.673C1162.04 513.669 1138.46 540.496 1114.69 567.151C1154.82 572.631 1189.89 552.829 1188.02 508.66C1197.32 496.553 1221.58 469.783 1232.3 458.655C1243.52 477.827 1246.06 495.702 1245.79 517.487C1243.27 542.235 1237.58 563.148 1222.51 583.416C1204.23 607.696 1177.03 623.675 1146.92 627.805C1114.73 632.428 1081.15 625.302 1054.98 605.57C1029.53 586.639 1012.68 558.337 1008.17 526.937C1000.49 471.747 1030.81 419.015 1084.14 400.582C1094.52 396.994 1103.32 395.587 1114.2 394.124ZM1074.32 533.159C1076.81 530.248 1080.25 525.989 1082.89 523.379C1097.74 506.962 1112.67 490.624 1127.69 474.367C1133.24 468.369 1140.43 461.376 1145.54 455.525C1140.56 454.676 1129.79 453.047 1124.87 453.441C1081.6 456.737 1060.34 492.762 1074.32 533.159Z" fill="#FEFEFE"/>
<path d="M929.108 137.959C942.713 140.027 969.27 139.67 984.953 141.167C985.815 150.618 985.335 176.445 985.365 186.916L985.642 280.731L985.11 623.459L973.313 623.477L912.848 623.311C912.51 609.866 913.673 591.179 914.145 577.35L917.895 477.848L929.108 137.959Z" fill="#FEFEFE"/>
<path d="M461.768 691.209C476.209 688.373 495.193 693.504 506.955 702.063C519.434 711.268 527.658 725.133 529.753 740.5C537.869 795.914 476.444 830.115 435.024 798.142L435.035 818.187L435.069 850.903C422.863 850.873 410.095 850.64 397.942 851.18C398.706 835.209 398.076 813.289 398.079 796.995L398.123 692.006C409.399 692.573 423.632 692.231 435.04 692.176L434.929 704.243C443.598 695.685 449.522 692.559 461.768 691.209ZM468.401 779.838C484.946 777.235 496.192 761.631 493.436 745.108C490.68 728.585 474.98 717.48 458.486 720.39C442.205 723.261 431.279 738.717 434 755.029C436.72 771.338 452.071 782.411 468.401 779.838Z" fill="#E3B442"/>
<path d="M697.773 691.193C789.855 679.131 806.67 795.584 721.682 809.223C703.038 811.646 682.019 808.825 666.572 797.505C653.828 788.247 645.403 774.204 643.241 758.6C638.866 727.963 656.217 700.036 686.973 692.923C690.485 692.111 694.197 691.674 697.773 691.193ZM714.436 780.175C731.071 777.4 742.283 761.631 739.439 745.005C736.596 728.378 720.781 717.232 704.171 720.147C687.661 723.045 676.598 738.747 679.425 755.277C682.251 771.803 697.902 782.929 714.436 780.175Z" fill="#E3B442"/>
<path d="M940.875 691.211C943.41 690.689 948.082 690.756 950.722 690.653C973.845 689.751 995.82 699.288 1006.18 720.926C1012.17 733.447 1012.17 744.493 1012.44 758.008C1003.78 758.585 990.772 758.21 981.817 758.203L925.252 758.12C925.822 760.461 926.647 764.662 927.727 766.687C938.385 786.545 963.585 785.464 975.585 768.128L1001.81 768.12L1012.29 768.143C1005.36 791.758 990.495 804.736 964.755 809.178C904.837 819.53 866.04 762.411 900.6 711.592C909.24 698.889 925.2 692.937 940.875 691.211ZM926.415 735.869L955.687 735.826C962.1 735.834 968.73 735.75 975.12 735.858C970.912 720.808 963.098 716.851 947.76 717.357C935.288 719.925 930.247 723.569 926.415 735.869Z" fill="#E3B442"/>
<path d="M1152.92 691.126C1155.34 690.642 1157.95 690.875 1160.44 690.772C1172.56 690.221 1185.49 693.247 1194.36 701.948C1208.84 716.158 1208.11 737.718 1208.08 756.522C1208.04 773.079 1207.98 789.71 1208.16 806.304C1195.67 806.589 1182.41 806.394 1169.86 806.424C1169.47 791.248 1173.17 738.717 1165.61 728.374C1162.36 723.936 1156.23 721.516 1150.9 720.852C1144.26 720.023 1138.27 722.441 1133.12 726.43C1126.24 733.538 1125.01 743.404 1125.1 752.899C1125.29 770.596 1124.76 788.803 1125.57 806.447C1112.76 806.289 1099.64 806.439 1086.81 806.454L1086.74 692.156C1099.3 692.436 1112.67 692.221 1125.28 692.228C1125.52 696.372 1125.23 701.997 1125.13 706.255C1134.23 696.578 1139.6 693.514 1152.92 691.126Z" fill="#E3B442"/>
<path d="M811.86 662.069C820.567 661.461 835.185 662.001 844.492 662.034L844.477 692.036C855.9 691.846 868.26 692.528 879.48 691.813L879.382 720.147C867.757 720.017 856.132 720.036 844.515 720.204C844.935 745.213 834.487 797.632 876.772 771.436C879.127 778.698 882.195 786.582 883.882 793.889L885.157 797.55C884.91 798.773 884.557 799.658 883.575 800.595C879.27 804.714 874.425 805.824 868.65 807.392C852.592 811.743 831.472 811.991 818.767 799.538C807.457 788.45 807.885 771.578 807.907 756.89C807.93 744.717 807.99 732.358 808.073 720.093L783.652 720.048L783.795 692.143L808.132 692.194C807.765 684.16 807.645 671.051 808.065 663.214C809.31 661.817 809.295 662.284 811.86 662.069Z" fill="#E3B442"/>
<path d="M618.543 691.188C623.72 690.557 629.786 690.864 635.066 690.964L635.15 727.089C630.443 726.441 625.699 726.11 620.948 726.099C605.213 726.159 592.273 732.657 586.568 747.831C582.524 758.593 583.396 769.193 583.409 780.408L583.446 806.417C577.432 806.439 550.439 806.837 546.357 805.959L545.87 804.384L545.974 692.066C556.813 692.464 572.703 692.423 583.46 691.878C583.466 699.716 583.37 707.554 583.169 715.39C590.749 700.068 601.811 693.137 618.543 691.188Z" fill="#E3B442"/>
<path d="M1026.5 691.925C1034.86 692.748 1056.34 692.325 1064.97 691.935C1064.42 728.492 1064.24 769.943 1065.01 806.402L1026.04 806.439L1026.02 727.771C1026.01 720.678 1025.53 697.256 1026.5 691.925Z" fill="#E3B442"/>
<path d="M1039.45 645.371C1065.64 640.996 1077.07 672.644 1049.48 681.823C1039.23 682.763 1029.36 680.12 1025.41 669.58C1023.67 664.991 1023.91 659.886 1026.08 655.483C1028.98 649.755 1033.69 647.297 1039.45 645.371Z" fill="#E3B442"/>
</svg>
